<?xml version="1.0" encoding="UTF-8" standalone="no"?>
<!DOCTYPE svg PUBLIC "-//W3C//DTD SVG 1.1//EN" "http://www.w3.org/Graphics/SVG/1.1/DTD/svg11.dtd">
<svg version="1.1" xmlns="http://www.w3.org/2000/svg" xmlns:xlink="http://www.w3.org/1999/xlink" preserveAspectRatio="xMidYMid meet" viewBox="0 0 200 200" width="200" height="200"><defs><path d="M106.16 100.01L106.24 100.02L106.31 100.04L106.38 100.05L106.45 100.08L106.52 100.1L106.59 100.13L106.65 100.16L106.71 100.2L106.77 100.24L106.83 100.28L106.89 100.33L106.94 100.38L107 100.43L107.05 100.49L107.1 100.54L107.15 100.6L107.2 100.67L107.24 100.74L107.29 100.8L107.33 100.88L107.38 100.95L107.42 101.03L107.46 101.11L107.5 101.19L107.54 101.27L107.58 101.35L107.62 101.44L107.65 101.53L107.69 101.62L107.72 101.71L107.76 101.81L107.79 101.9L107.83 102L107.86 102.1L107.9 102.2L107.93 102.3L107.97 102.4L108 102.5L109.73 108.99L110.27 109.16L111.47 109.59L112.65 110.06L113.8 110.57L114.93 111.13L115.03 111.18L120.86 107.81L120.96 107.76L121.05 107.71L121.15 107.66L121.24 107.61L121.33 107.57L121.43 107.52L121.52 107.48L121.61 107.44L121.7 107.4L121.79 107.36L121.88 107.33L121.97 107.29L122.06 107.26L122.14 107.23L122.23 107.2L122.31 107.17L122.4 107.15L122.48 107.12L122.56 107.11L122.64 107.09L122.72 107.07L122.8 107.06L122.88 107.05L122.96 107.05L123.03 107.05L123.11 107.05L123.18 107.05L123.25 107.06L123.33 107.07L123.4 107.08L123.47 107.1L123.53 107.13L123.6 107.15L123.67 107.18L123.73 107.22L123.8 107.25L123.86 107.3L123.92 107.34L123.98 107.4L124.04 107.45L132.53 115.94L132.58 116L132.63 116.06L132.68 116.12L132.73 116.18L132.77 116.25L132.8 116.31L132.83 116.38L132.86 116.45L132.89 116.52L132.91 116.59L132.92 116.67L132.94 116.74L132.95 116.82L132.95 116.89L132.95 116.97L132.95 117.05L132.95 117.13L132.94 117.21L132.94 117.29L132.92 117.37L132.91 117.45L132.89 117.54L132.87 117.62L132.85 117.7L132.82 117.79L132.79 117.88L132.76 117.96L132.73 118.05L132.69 118.14L132.65 118.22L132.61 118.31L132.57 118.4L132.53 118.49L132.48 118.58L132.44 118.67L132.39 118.76L132.33 118.85L132.28 118.94L132.23 119.03L132.17 119.12L128.8 124.94L128.87 125.07L129.43 126.2L129.95 127.35L130.42 128.53L130.84 129.73L131.01 130.27L137.5 132L137.6 132.03L137.7 132.05L137.81 132.08L137.91 132.11L138 132.13L138.1 132.16L138.2 132.19L138.29 132.23L138.38 132.26L138.47 132.29L138.56 132.33L138.65 132.37L138.73 132.4L138.82 132.44L138.9 132.48L138.98 132.53L139.05 132.57L139.13 132.61L139.2 132.66L139.27 132.71L139.33 132.76L139.4 132.81L139.46 132.86L139.52 132.91L139.57 132.97L139.62 133.02L139.67 133.08L139.72 133.14L139.76 133.21L139.8 133.27L139.84 133.33L139.87 133.4L139.9 133.47L139.93 133.54L139.95 133.61L139.97 133.69L139.98 133.76L139.99 133.84L140 133.92L140 134L140 146L140 146.08L139.99 146.16L139.98 146.24L139.97 146.31L139.95 146.39L139.93 146.46L139.9 146.52L139.87 146.59L139.84 146.65L139.8 146.72L139.76 146.78L139.72 146.84L139.67 146.89L139.63 146.95L139.57 147L139.52 147.05L139.46 147.1L139.4 147.15L139.33 147.2L139.27 147.25L139.2 147.29L139.13 147.34L139.05 147.38L138.98 147.42L138.9 147.46L138.82 147.5L138.73 147.54L138.65 147.58L138.56 147.62L138.47 147.66L138.38 147.69L138.29 147.73L138.2 147.76L138.1 147.8L138 147.83L137.91 147.87L137.81 147.9L137.71 147.93L137.6 147.97L137.5 148L131.01 149.73L130.84 150.27L130.42 151.47L129.95 152.65L129.43 153.81L128.87 154.94L128.81 155.05L132.17 160.86L132.23 160.95L132.28 161.04L132.34 161.13L132.39 161.22L132.44 161.31L132.48 161.4L132.53 161.49L132.57 161.58L132.62 161.67L132.66 161.76L132.69 161.84L132.73 161.93L132.76 162.02L132.79 162.1L132.82 162.19L132.85 162.28L132.87 162.36L132.89 162.44L132.91 162.53L132.92 162.61L132.94 162.69L132.95 162.77L132.95 162.85L132.96 162.93L132.96 163.01L132.95 163.09L132.95 163.16L132.94 163.24L132.92 163.31L132.91 163.39L132.89 163.46L132.86 163.53L132.83 163.6L132.8 163.67L132.77 163.73L132.73 163.8L132.68 163.86L132.64 163.92L132.58 163.98L132.53 164.04L124.04 172.53L123.98 172.59L123.92 172.64L123.86 172.68L123.8 172.73L123.73 172.76L123.67 172.8L123.6 172.83L123.54 172.86L123.47 172.88L123.4 172.9L123.33 172.91L123.26 172.92L123.18 172.93L123.11 172.93L123.03 172.93L122.96 172.93L122.88 172.93L122.8 172.92L122.72 172.91L122.64 172.89L122.56 172.88L122.48 172.86L122.4 172.83L122.31 172.81L122.23 172.78L122.14 172.75L122.06 172.72L121.97 172.69L121.88 172.66L121.79 172.62L121.7 172.58L121.61 172.54L121.52 172.5L121.43 172.46L121.34 172.41L121.24 172.37L121.15 172.32L121.05 172.27L120.96 172.22L120.86 172.18L115.05 168.81L114.94 168.87L113.81 169.43L112.65 169.95L111.47 170.42L110.27 170.85L109.73 171.01L108 177.5L107.97 177.61L107.93 177.71L107.9 177.81L107.87 177.91L107.83 178.01L107.8 178.1L107.76 178.2L107.73 178.29L107.69 178.38L107.65 178.48L107.62 178.56L107.58 178.65L107.54 178.74L107.5 178.82L107.46 178.9L107.42 178.98L107.38 179.06L107.34 179.13L107.29 179.2L107.25 179.27L107.2 179.34L107.15 179.4L107.1 179.46L107.05 179.52L107 179.58L106.95 179.63L106.89 179.68L106.84 179.72L106.78 179.77L106.72 179.81L106.65 179.84L106.59 179.88L106.52 179.9L106.46 179.93L106.39 179.95L106.31 179.97L106.24 179.98L106.16 179.99L106.08 180L106 180L94 180L93.92 180L93.84 179.99L93.76 179.98L93.69 179.97L93.61 179.95L93.54 179.93L93.47 179.9L93.4 179.88L93.33 179.84L93.27 179.81L93.2 179.77L93.14 179.72L93.08 179.68L93.02 179.63L92.97 179.58L92.91 179.52L92.86 179.46L92.81 179.4L92.76 179.34L92.71 179.27L92.66 179.2L92.61 179.13L92.57 179.06L92.53 178.98L92.48 178.9L92.44 178.82L92.4 178.74L92.37 178.65L92.33 178.56L92.29 178.48L92.26 178.39L92.23 178.29L92.19 178.2L92.16 178.1L92.13 178.01L92.11 177.91L92.08 177.81L92.05 177.71L92.03 177.61L92 177.5L90.27 171.01L89.73 170.85L88.53 170.42L87.35 169.95L86.2 169.43L85.07 168.88L84.93 168.8L79.14 172.15L79.05 172.21L78.96 172.26L78.87 172.32L78.78 172.37L78.69 172.42L78.6 172.46L78.51 172.51L78.42 172.55L78.34 172.59L78.25 172.63L78.16 172.67L78.07 172.71L77.98 172.74L77.9 172.77L77.81 172.8L77.73 172.83L77.64 172.85L77.56 172.87L77.47 172.89L77.39 172.9L77.31 172.92L77.23 172.93L77.15 172.93L77.07 172.94L76.99 172.94L76.92 172.93L76.84 172.93L76.76 172.92L76.69 172.9L76.62 172.89L76.55 172.87L76.47 172.84L76.41 172.81L76.34 172.78L76.27 172.75L76.21 172.71L76.14 172.66L76.08 172.62L76.02 172.56L75.96 172.51L67.47 164.02L67.42 163.96L67.37 163.9L67.32 163.84L67.28 163.78L67.24 163.71L67.2 163.65L67.17 163.58L67.15 163.52L67.13 163.45L67.11 163.38L67.09 163.31L67.08 163.23L67.07 163.16L67.07 163.09L67.07 163.01L67.07 162.94L67.08 162.86L67.09 162.78L67.1 162.7L67.11 162.62L67.13 162.54L67.15 162.46L67.17 162.38L67.19 162.29L67.22 162.21L67.25 162.12L67.28 162.04L67.31 161.95L67.35 161.86L67.38 161.77L67.42 161.68L67.46 161.59L67.5 161.5L67.55 161.41L67.59 161.32L67.64 161.22L67.68 161.13L67.73 161.03L67.78 160.94L67.83 160.84L71.18 155.04L71.13 154.94L70.57 153.81L70.05 152.65L69.58 151.48L69.16 150.28L68.99 149.73L62.5 148L62.4 147.97L62.3 147.94L62.19 147.9L62.09 147.87L62 147.83L61.9 147.8L61.8 147.77L61.71 147.73L61.62 147.69L61.53 147.66L61.44 147.62L61.35 147.58L61.27 147.54L61.18 147.51L61.1 147.47L61.02 147.42L60.95 147.38L60.87 147.34L60.8 147.3L60.73 147.25L60.67 147.2L60.6 147.16L60.54 147.11L60.48 147.06L60.43 147L60.38 146.95L60.33 146.9L60.28 146.84L60.24 146.78L60.2 146.72L60.16 146.66L60.13 146.59L60.1 146.53L60.07 146.46L60.05 146.39L60.03 146.32L60.02 146.24L60.01 146.16L60 146.09L60 146L60 134L60 133.92L60.01 133.84L60.02 133.76L60.03 133.69L60.05 133.61L60.07 133.54L60.1 133.47L60.13 133.4L60.16 133.34L60.2 133.27L60.24 133.21L60.28 133.15L60.33 133.09L60.37 133.03L60.43 132.97L60.48 132.92L60.54 132.86L60.6 132.81L60.67 132.76L60.73 132.71L60.8 132.66L60.87 132.62L60.95 132.57L61.02 132.53L61.1 132.49L61.18 132.45L61.27 132.41L61.35 132.37L61.44 132.33L61.53 132.3L61.62 132.26L61.71 132.23L61.8 132.2L61.9 132.17L62 132.14L62.09 132.11L62.19 132.08L62.29 132.05L62.4 132.03L62.5 132L68.99 130.27L69.16 129.73L69.58 128.53L70.05 127.35L70.57 126.2L71.13 125.07L71.19 124.95L67.83 119.14L67.78 119.05L67.73 118.95L67.68 118.86L67.63 118.76L67.59 118.67L67.55 118.58L67.5 118.48L67.46 118.39L67.42 118.3L67.38 118.21L67.35 118.12L67.31 118.03L67.28 117.95L67.25 117.86L67.22 117.78L67.19 117.69L67.17 117.61L67.15 117.52L67.13 117.44L67.11 117.36L67.1 117.28L67.08 117.2L67.08 117.12L67.07 117.05L67.07 116.97L67.07 116.9L67.07 116.82L67.08 116.75L67.09 116.68L67.11 116.61L67.12 116.54L67.15 116.47L67.17 116.4L67.2 116.34L67.24 116.27L67.27 116.21L67.32 116.14L67.36 116.08L67.42 116.02L67.47 115.96L75.96 107.48L76.02 107.42L76.08 107.37L76.14 107.32L76.2 107.28L76.27 107.24L76.34 107.2L76.4 107.17L76.47 107.14L76.54 107.12L76.61 107.1L76.69 107.08L76.76 107.07L76.84 107.06L76.91 107.05L76.99 107.05L77.07 107.05L77.15 107.05L77.23 107.06L77.31 107.07L77.39 107.08L77.47 107.1L77.56 107.11L77.64 107.13L77.72 107.16L77.81 107.18L77.9 107.21L77.98 107.24L78.07 107.28L78.16 107.31L78.24 107.35L78.33 107.39L78.42 107.43L78.51 107.47L78.6 107.52L78.69 107.57L78.78 107.62L78.87 107.67L78.96 107.72L79.05 107.77L79.14 107.83L84.95 111.19L85.06 111.13L86.19 110.57L87.35 110.06L88.53 109.59L89.73 109.16L90.27 108.99L92 102.5L92.02 102.4L92.05 102.3L92.08 102.2L92.1 102.1L92.13 102L92.16 101.9L92.19 101.81L92.22 101.71L92.26 101.62L92.29 101.53L92.33 101.44L92.36 101.35L92.4 101.27L92.44 101.19L92.48 101.11L92.52 101.03L92.57 100.95L92.61 100.88L92.66 100.8L92.7 100.74L92.75 100.67L92.8 100.61L92.86 100.54L92.91 100.49L92.97 100.43L93.02 100.38L93.08 100.33L93.14 100.28L93.2 100.24L93.27 100.2L93.33 100.16L93.4 100.13L93.47 100.1L93.54 100.08L93.61 100.05L93.68 100.04L93.76 100.02L93.84 100.01L93.92 100.01L94 100L106 100L106.08 100L106.16 100.01ZM98.56 122.56L97.86 122.63L97.16 122.73L96.47 122.86L95.79 123.01L95.13 123.19L94.47 123.4L93.82 123.62L93.19 123.88L92.57 124.16L91.96 124.46L91.36 124.78L90.78 125.13L90.22 125.49L89.66 125.88L89.13 126.29L88.61 126.72L88.11 127.16L87.63 127.63L87.16 128.11L86.71 128.61L86.28 129.13L85.88 129.67L85.49 130.22L85.12 130.79L84.78 131.37L84.45 131.96L84.15 132.57L83.88 133.19L83.62 133.83L83.39 134.47L83.19 135.13L83.01 135.8L82.86 136.48L82.73 137.16L82.63 137.86L82.56 138.57L82.51 139.28L82.5 140L82.51 140.72L82.56 141.44L82.63 142.14L82.73 142.84L82.86 143.53L83.01 144.21L83.19 144.88L83.39 145.53L83.62 146.18L83.88 146.82L84.15 147.44L84.45 148.05L84.78 148.64L85.12 149.22L85.49 149.79L85.88 150.34L86.28 150.87L86.71 151.39L87.16 151.89L87.63 152.38L88.11 152.84L88.61 153.29L89.13 153.72L89.67 154.13L90.22 154.51L90.78 154.88L91.36 155.23L91.96 155.55L92.57 155.85L93.19 156.13L93.82 156.38L94.47 156.61L95.13 156.82L95.8 156.99L96.47 157.15L97.16 157.27L97.86 157.37L98.57 157.44L99.28 157.49L100 157.5L100.72 157.49L101.44 157.44L102.14 157.37L102.84 157.27L103.53 157.15L104.21 156.99L104.87 156.82L105.53 156.61L106.18 156.38L106.81 156.13L107.43 155.85L108.04 155.55L108.64 155.23L109.22 154.88L109.78 154.51L110.34 154.13L110.87 153.72L111.39 153.29L111.89 152.84L112.37 152.38L112.84 151.89L113.29 151.39L113.72 150.87L114.12 150.34L114.51 149.79L114.88 149.22L115.22 148.64L115.55 148.04L115.85 147.44L116.12 146.81L116.38 146.18L116.61 145.53L116.81 144.88L116.99 144.21L117.14 143.53L117.27 142.84L117.37 142.14L117.44 141.44L117.49 140.72L117.5 140L117.49 139.28L117.44 138.57L117.37 137.86L117.27 137.16L117.14 136.48L116.99 135.8L116.81 135.13L116.61 134.47L116.38 133.82L116.12 133.19L115.85 132.57L115.55 131.96L115.22 131.37L114.88 130.78L114.51 130.22L114.12 129.67L113.72 129.13L113.29 128.61L112.84 128.11L112.37 127.63L111.89 127.16L111.39 126.72L110.87 126.29L110.33 125.88L109.78 125.49L109.22 125.12L108.64 124.78L108.04 124.46L107.43 124.16L106.81 123.88L106.18 123.62L105.53 123.39L104.87 123.19L104.2 123.01L103.53 122.86L102.84 122.73L102.14 122.63L101.43 122.56L100.72 122.52L100 122.5L99.28 122.52L98.56 122.56Z" id="cjkXSBuoC"></path><path d="M66.16 139.99L66.24 139.98L66.31 139.97L66.38 139.95L66.45 139.93L66.52 139.9L66.59 139.87L66.65 139.84L66.72 139.8L66.78 139.76L66.83 139.72L66.89 139.67L66.95 139.63L67 139.57L67.05 139.52L67.1 139.46L67.15 139.4L67.2 139.33L67.25 139.27L67.29 139.2L67.34 139.13L67.38 139.05L67.42 138.98L67.46 138.9L67.5 138.82L67.54 138.73L67.58 138.65L67.62 138.56L67.65 138.47L67.69 138.38L67.73 138.29L67.76 138.2L67.8 138.1L67.83 138L67.86 137.91L67.9 137.81L67.93 137.7L67.97 137.6L68 137.5L69.73 131.01L70.27 130.84L71.47 130.42L72.65 129.95L73.81 129.43L74.94 128.87L75.03 128.82L80.86 132.2L80.96 132.25L81.05 132.29L81.15 132.34L81.24 132.39L81.34 132.43L81.43 132.48L81.52 132.52L81.61 132.56L81.7 132.6L81.79 132.64L81.88 132.68L81.97 132.71L82.06 132.74L82.14 132.78L82.23 132.8L82.31 132.83L82.4 132.86L82.48 132.88L82.56 132.9L82.64 132.91L82.72 132.93L82.8 132.94L82.88 132.95L82.96 132.95L83.03 132.96L83.11 132.95L83.18 132.95L83.25 132.94L83.33 132.93L83.4 132.92L83.47 132.9L83.54 132.88L83.6 132.85L83.67 132.82L83.73 132.79L83.8 132.75L83.86 132.71L83.92 132.66L83.98 132.61L84.04 132.55L92.53 124.07L92.58 124.01L92.64 123.95L92.68 123.88L92.73 123.82L92.77 123.75L92.8 123.69L92.83 123.62L92.86 123.55L92.89 123.48L92.91 123.41L92.92 123.34L92.94 123.26L92.95 123.19L92.95 123.11L92.96 123.03L92.96 122.95L92.95 122.88L92.95 122.8L92.94 122.71L92.92 122.63L92.91 122.55L92.89 122.47L92.87 122.38L92.85 122.3L92.82 122.21L92.79 122.13L92.76 122.04L92.73 121.95L92.69 121.87L92.65 121.78L92.61 121.69L92.57 121.6L92.53 121.51L92.48 121.42L92.44 121.33L92.39 121.24L92.34 121.15L92.28 121.06L92.23 120.97L92.17 120.88L88.8 115.06L88.87 114.94L89.43 113.81L89.95 112.65L90.42 111.47L90.84 110.27L91.01 109.73L97.5 108L97.6 107.98L97.7 107.95L97.81 107.92L97.91 107.9L98 107.87L98.1 107.84L98.2 107.81L98.29 107.78L98.38 107.74L98.47 107.71L98.56 107.67L98.65 107.64L98.73 107.6L98.82 107.56L98.9 107.52L98.98 107.48L99.05 107.43L99.13 107.39L99.2 107.34L99.27 107.29L99.33 107.24L99.4 107.19L99.46 107.14L99.52 107.09L99.57 107.03L99.63 106.98L99.67 106.92L99.72 106.86L99.76 106.8L99.8 106.73L99.84 106.67L99.87 106.6L99.9 106.53L99.93 106.46L99.95 106.39L99.97 106.32L99.98 106.24L99.99 106.16L100 106.08L100 106L100 94L100 93.92L99.99 93.84L99.98 93.76L99.97 93.69L99.95 93.62L99.93 93.55L99.9 93.48L99.87 93.41L99.84 93.35L99.8 93.28L99.76 93.22L99.72 93.17L99.67 93.11L99.63 93.05L99.57 93L99.52 92.95L99.46 92.9L99.4 92.85L99.33 92.8L99.27 92.75L99.2 92.71L99.13 92.66L99.05 92.62L98.98 92.58L98.9 92.54L98.82 92.5L98.73 92.46L98.65 92.42L98.56 92.38L98.47 92.35L98.38 92.31L98.29 92.27L98.2 92.24L98.1 92.2L98 92.17L97.91 92.14L97.81 92.1L97.7 92.07L97.6 92.03L97.5 92L91.01 90.27L90.84 89.73L90.42 88.53L89.95 87.35L89.43 86.19L88.87 85.06L88.81 84.95L92.17 79.14L92.23 79.05L92.28 78.96L92.34 78.87L92.39 78.78L92.44 78.69L92.48 78.6L92.53 78.51L92.57 78.42L92.61 78.33L92.65 78.25L92.69 78.16L92.73 78.07L92.76 77.98L92.79 77.9L92.82 77.81L92.85 77.73L92.87 77.64L92.89 77.56L92.91 77.47L92.92 77.39L92.94 77.31L92.95 77.23L92.95 77.15L92.96 77.07L92.96 76.99L92.95 76.91L92.95 76.84L92.94 76.76L92.92 76.69L92.91 76.62L92.89 76.54L92.86 76.47L92.83 76.4L92.8 76.34L92.77 76.27L92.73 76.2L92.68 76.14L92.64 76.08L92.58 76.02L92.53 75.96L84.04 67.47L83.98 67.42L83.92 67.37L83.86 67.32L83.8 67.28L83.73 67.24L83.67 67.2L83.6 67.17L83.54 67.15L83.47 67.12L83.4 67.11L83.33 67.09L83.25 67.08L83.18 67.07L83.11 67.07L83.03 67.07L82.96 67.07L82.88 67.08L82.8 67.08L82.72 67.1L82.64 67.11L82.56 67.13L82.48 67.15L82.4 67.17L82.31 67.19L82.23 67.22L82.14 67.25L82.06 67.28L81.97 67.31L81.88 67.35L81.79 67.38L81.7 67.42L81.61 67.46L81.52 67.5L81.43 67.55L81.34 67.59L81.24 67.64L81.15 67.68L81.05 67.73L80.96 67.78L80.86 67.83L75.05 71.19L74.94 71.13L73.81 70.57L72.65 70.05L71.47 69.58L70.27 69.16L69.73 68.99L68 62.5L67.97 62.4L67.93 62.3L67.9 62.19L67.86 62.09L67.83 62L67.8 61.9L67.76 61.8L67.73 61.71L67.69 61.62L67.65 61.53L67.62 61.44L67.58 61.35L67.54 61.27L67.5 61.18L67.46 61.1L67.42 61.02L67.38 60.95L67.34 60.87L67.29 60.8L67.25 60.73L67.2 60.67L67.15 60.6L67.1 60.54L67.05 60.48L67 60.43L66.95 60.37L66.89 60.33L66.83 60.28L66.78 60.24L66.72 60.2L66.65 60.16L66.59 60.13L66.52 60.1L66.45 60.07L66.38 60.05L66.31 60.03L66.24 60.02L66.16 60.01L66.08 60L66 60L54 60L53.92 60L53.84 60.01L53.76 60.02L53.68 60.03L53.61 60.05L53.54 60.07L53.47 60.1L53.4 60.13L53.33 60.16L53.27 60.2L53.2 60.24L53.14 60.28L53.08 60.33L53.02 60.37L52.97 60.43L52.91 60.48L52.86 60.54L52.81 60.6L52.76 60.67L52.71 60.73L52.66 60.8L52.61 60.87L52.57 60.95L52.52 61.02L52.48 61.1L52.44 61.18L52.4 61.27L52.36 61.35L52.33 61.44L52.29 61.53L52.26 61.62L52.22 61.71L52.19 61.8L52.16 61.9L52.13 62L52.1 62.09L52.08 62.19L52.05 62.3L52.02 62.4L52 62.5L50.27 68.99L49.73 69.16L48.53 69.58L47.35 70.05L46.19 70.57L45.06 71.13L44.93 71.2L39.14 67.85L39.05 67.79L38.96 67.74L38.87 67.69L38.78 67.64L38.69 67.59L38.6 67.54L38.51 67.49L38.42 67.45L38.33 67.41L38.25 67.37L38.16 67.33L38.07 67.3L37.98 67.26L37.9 67.23L37.81 67.2L37.73 67.18L37.64 67.15L37.56 67.13L37.47 67.12L37.39 67.1L37.31 67.09L37.23 67.08L37.15 67.07L37.07 67.07L36.99 67.07L36.91 67.07L36.84 67.08L36.76 67.09L36.69 67.1L36.62 67.12L36.54 67.14L36.47 67.16L36.4 67.19L36.34 67.22L36.27 67.26L36.2 67.3L36.14 67.34L36.08 67.39L36.02 67.44L35.96 67.5L27.47 75.98L27.42 76.04L27.37 76.1L27.32 76.16L27.28 76.23L27.24 76.29L27.2 76.36L27.17 76.42L27.15 76.49L27.12 76.56L27.11 76.63L27.09 76.7L27.08 76.77L27.07 76.84L27.07 76.92L27.07 76.99L27.07 77.07L27.08 77.14L27.08 77.22L27.1 77.3L27.11 77.38L27.13 77.46L27.15 77.54L27.17 77.63L27.19 77.71L27.22 77.8L27.25 77.88L27.28 77.97L27.31 78.05L27.35 78.14L27.38 78.23L27.42 78.32L27.46 78.41L27.5 78.5L27.55 78.6L27.59 78.69L27.64 78.78L27.68 78.88L27.73 78.97L27.78 79.07L27.83 79.16L31.18 84.96L31.13 85.06L30.57 86.19L30.05 87.35L29.58 88.53L29.16 89.73L28.99 90.27L22.5 92L22.4 92.03L22.3 92.07L22.19 92.1L22.09 92.14L22 92.17L21.9 92.2L21.8 92.24L21.71 92.27L21.62 92.31L21.53 92.35L21.44 92.38L21.35 92.42L21.27 92.46L21.18 92.5L21.1 92.54L21.02 92.58L20.95 92.62L20.87 92.66L20.8 92.71L20.73 92.75L20.67 92.8L20.6 92.85L20.54 92.9L20.48 92.95L20.43 93L20.37 93.05L20.33 93.11L20.28 93.17L20.24 93.22L20.2 93.28L20.16 93.35L20.13 93.41L20.1 93.48L20.07 93.55L20.05 93.62L20.03 93.69L20.02 93.76L20.01 93.84L20 93.92L20 94L20 106L20 106.08L20.01 106.16L20.02 106.24L20.03 106.32L20.05 106.39L20.07 106.46L20.1 106.53L20.13 106.6L20.16 106.67L20.2 106.73L20.24 106.8L20.28 106.86L20.33 106.92L20.37 106.98L20.43 107.03L20.48 107.09L20.54 107.14L20.6 107.19L20.67 107.24L20.73 107.29L20.8 107.34L20.87 107.39L20.95 107.43L21.02 107.48L21.1 107.52L21.18 107.56L21.27 107.6L21.35 107.64L21.44 107.67L21.53 107.71L21.62 107.74L21.71 107.78L21.8 107.81L21.9 107.84L22 107.87L22.09 107.9L22.19 107.92L22.3 107.95L22.4 107.98L22.5 108L28.99 109.73L29.16 110.27L29.58 111.47L30.05 112.65L30.57 113.81L31.13 114.94L31.19 115.05L27.83 120.86L27.78 120.96L27.73 121.05L27.68 121.15L27.64 121.24L27.59 121.34L27.55 121.43L27.5 121.52L27.46 121.61L27.42 121.7L27.38 121.79L27.35 121.88L27.31 121.97L27.28 122.06L27.25 122.14L27.22 122.23L27.19 122.31L27.17 122.4L27.15 122.48L27.13 122.56L27.11 122.64L27.1 122.72L27.08 122.8L27.08 122.88L27.07 122.96L27.07 123.03L27.07 123.11L27.07 123.18L27.08 123.25L27.09 123.33L27.11 123.4L27.12 123.47L27.15 123.54L27.17 123.6L27.2 123.67L27.24 123.73L27.28 123.8L27.32 123.86L27.37 123.92L27.42 123.98L27.47 124.04L35.96 132.53L36.02 132.58L36.08 132.64L36.14 132.68L36.2 132.73L36.27 132.77L36.34 132.8L36.4 132.83L36.47 132.86L36.54 132.89L36.62 132.91L36.69 132.92L36.76 132.94L36.84 132.95L36.91 132.95L36.99 132.96L37.07 132.96L37.15 132.95L37.23 132.95L37.31 132.94L37.39 132.92L37.47 132.91L37.56 132.89L37.64 132.87L37.73 132.85L37.81 132.82L37.9 132.79L37.98 132.76L38.07 132.73L38.16 132.69L38.25 132.65L38.33 132.61L38.42 132.57L38.51 132.53L38.6 132.48L38.69 132.44L38.78 132.39L38.87 132.34L38.96 132.28L39.05 132.23L39.14 132.17L44.95 128.81L45.06 128.87L46.19 129.43L47.35 129.95L48.53 130.42L49.73 130.84L50.27 131.01L52 137.5L52.02 137.6L52.05 137.7L52.08 137.81L52.1 137.91L52.13 138L52.16 138.1L52.19 138.2L52.22 138.29L52.26 138.38L52.29 138.47L52.33 138.56L52.36 138.65L52.4 138.73L52.44 138.82L52.48 138.9L52.52 138.98L52.57 139.05L52.61 139.13L52.66 139.2L52.71 139.27L52.76 139.33L52.81 139.4L52.86 139.46L52.91 139.52L52.97 139.57L53.02 139.63L53.08 139.67L53.14 139.72L53.2 139.76L53.27 139.8L53.33 139.84L53.4 139.87L53.47 139.9L53.54 139.93L53.61 139.95L53.68 139.97L53.76 139.98L53.84 139.99L53.92 140L54 140L66 140L66.08 140L66.16 139.99ZM58.56 117.44L57.86 117.37L57.16 117.27L56.47 117.14L55.79 116.99L55.13 116.81L54.47 116.61L53.82 116.38L53.19 116.12L52.57 115.85L51.96 115.55L51.36 115.22L50.78 114.88L50.22 114.51L49.66 114.12L49.13 113.72L48.61 113.29L48.11 112.84L47.63 112.37L47.16 111.89L46.71 111.39L46.28 110.87L45.88 110.34L45.49 109.78L45.12 109.22L44.78 108.64L44.45 108.04L44.15 107.43L43.88 106.81L43.62 106.18L43.39 105.53L43.19 104.87L43.01 104.21L42.86 103.53L42.73 102.84L42.63 102.14L42.56 101.44L42.51 100.72L42.5 100L42.51 99.28L42.56 98.56L42.63 97.86L42.73 97.16L42.86 96.47L43.01 95.79L43.19 95.13L43.39 94.47L43.62 93.82L43.88 93.19L44.15 92.57L44.45 91.96L44.78 91.36L45.12 90.78L45.49 90.22L45.88 89.66L46.28 89.13L46.71 88.61L47.16 88.11L47.63 87.63L48.11 87.16L48.61 86.71L49.13 86.28L49.66 85.88L50.22 85.49L50.78 85.12L51.36 84.78L51.96 84.45L52.57 84.15L53.19 83.88L53.82 83.62L54.47 83.39L55.13 83.19L55.79 83.01L56.47 82.86L57.16 82.73L57.86 82.63L58.56 82.56L59.28 82.51L60 82.5L60.72 82.51L61.44 82.56L62.14 82.63L62.84 82.73L63.53 82.86L64.21 83.01L64.87 83.19L65.53 83.39L66.18 83.62L66.81 83.88L67.43 84.15L68.04 84.45L68.64 84.78L69.22 85.12L69.78 85.49L70.34 85.88L70.87 86.28L71.39 86.71L71.89 87.16L72.37 87.63L72.84 88.11L73.29 88.61L73.72 89.13L74.12 89.66L74.51 90.22L74.88 90.78L75.22 91.36L75.55 91.96L75.85 92.57L76.12 93.19L76.38 93.82L76.61 94.47L76.81 95.13L76.99 95.79L77.14 96.47L77.27 97.16L77.37 97.86L77.44 98.56L77.49 99.28L77.5 100L77.49 100.72L77.44 101.44L77.37 102.14L77.27 102.84L77.14 103.53L76.99 104.21L76.81 104.87L76.61 105.53L76.38 106.18L76.12 106.81L75.85 107.43L75.55 108.04L75.22 108.64L74.88 109.22L74.51 109.78L74.12 110.34L73.72 110.87L73.29 111.39L72.84 111.89L72.37 112.37L71.89 112.84L71.39 113.29L70.87 113.72L70.34 114.12L69.78 114.51L69.22 114.88L68.64 115.22L68.04 115.55L67.43 115.85L66.81 116.12L66.18 116.38L65.53 116.61L64.87 116.81L64.21 116.99L63.53 117.14L62.84 117.27L62.14 117.37L61.44 117.44L60.72 117.49L60 117.5L59.28 117.49L58.56 117.44Z" id="crhojALRG"></path><path d="M146.16 60.01L146.24 60.02L146.31 60.03L146.38 60.05L146.45 60.07L146.52 60.1L146.59 60.13L146.65 60.16L146.72 60.2L146.78 60.24L146.83 60.28L146.89 60.33L146.95 60.37L147 60.43L147.05 60.48L147.1 60.54L147.15 60.6L147.2 60.67L147.25 60.73L147.29 60.8L147.34 60.87L147.38 60.95L147.42 61.02L147.46 61.1L147.5 61.18L147.54 61.27L147.58 61.35L147.62 61.44L147.65 61.53L147.69 61.62L147.73 61.71L147.76 61.8L147.8 61.9L147.83 62L147.86 62.09L147.9 62.19L147.93 62.3L147.97 62.4L148 62.5L149.73 68.99L150.27 69.16L151.47 69.58L152.65 70.05L153.81 70.57L154.94 71.13L155.03 71.18L160.86 67.8L160.96 67.75L161.05 67.71L161.15 67.66L161.24 67.61L161.34 67.57L161.43 67.52L161.52 67.48L161.61 67.44L161.7 67.4L161.79 67.36L161.88 67.32L161.97 67.29L162.06 67.26L162.14 67.22L162.23 67.2L162.31 67.17L162.4 67.14L162.48 67.12L162.56 67.1L162.64 67.09L162.72 67.07L162.8 67.06L162.88 67.05L162.96 67.05L163.03 67.04L163.11 67.05L163.18 67.05L163.25 67.06L163.33 67.07L163.4 67.08L163.47 67.1L163.54 67.12L163.6 67.15L163.67 67.18L163.73 67.21L163.8 67.25L163.86 67.29L163.92 67.34L163.98 67.39L164.04 67.45L172.53 75.93L172.58 75.99L172.64 76.05L172.68 76.12L172.73 76.18L172.77 76.25L172.8 76.31L172.83 76.38L172.86 76.45L172.89 76.52L172.91 76.59L172.92 76.66L172.94 76.74L172.95 76.81L172.95 76.89L172.96 76.97L172.96 77.05L172.95 77.12L172.95 77.2L172.94 77.29L172.92 77.37L172.91 77.45L172.89 77.53L172.87 77.62L172.85 77.7L172.82 77.79L172.79 77.87L172.76 77.96L172.73 78.05L172.69 78.13L172.65 78.22L172.61 78.31L172.57 78.4L172.53 78.49L172.48 78.58L172.44 78.67L172.39 78.76L172.34 78.85L172.28 78.94L172.23 79.03L172.17 79.12L168.8 84.94L168.87 85.06L169.43 86.19L169.95 87.35L170.42 88.53L170.84 89.73L171.01 90.27L177.5 92L177.6 92.02L177.7 92.05L177.81 92.08L177.91 92.1L178 92.13L178.1 92.16L178.2 92.19L178.29 92.22L178.38 92.26L178.47 92.29L178.56 92.33L178.65 92.36L178.73 92.4L178.82 92.44L178.9 92.48L178.98 92.52L179.05 92.57L179.13 92.61L179.2 92.66L179.27 92.71L179.33 92.76L179.4 92.81L179.46 92.86L179.52 92.91L179.57 92.97L179.63 93.02L179.67 93.08L179.72 93.14L179.76 93.2L179.8 93.27L179.84 93.33L179.87 93.4L179.9 93.47L179.93 93.54L179.95 93.61L179.97 93.68L179.98 93.76L179.99 93.84L180 93.92L180 94L180 106L180 106.08L179.99 106.16L179.98 106.24L179.97 106.31L179.95 106.38L179.93 106.45L179.9 106.52L179.87 106.59L179.84 106.65L179.8 106.72L179.76 106.78L179.72 106.83L179.67 106.89L179.63 106.95L179.57 107L179.52 107.05L179.46 107.1L179.4 107.15L179.33 107.2L179.27 107.25L179.2 107.29L179.13 107.34L179.05 107.38L178.98 107.42L178.9 107.46L178.82 107.5L178.73 107.54L178.65 107.58L178.56 107.62L178.47 107.65L178.38 107.69L178.29 107.73L178.2 107.76L178.1 107.8L178 107.83L177.91 107.86L177.81 107.9L177.7 107.93L177.6 107.97L177.5 108L171.01 109.73L170.84 110.27L170.42 111.47L169.95 112.65L169.43 113.81L168.87 114.94L168.81 115.05L172.17 120.86L172.23 120.95L172.28 121.04L172.34 121.13L172.39 121.22L172.44 121.31L172.48 121.4L172.53 121.49L172.57 121.58L172.61 121.67L172.65 121.75L172.69 121.84L172.73 121.93L172.76 122.02L172.79 122.1L172.82 122.19L172.85 122.27L172.87 122.36L172.89 122.44L172.91 122.53L172.92 122.61L172.94 122.69L172.95 122.77L172.95 122.85L172.96 122.93L172.96 123.01L172.95 123.09L172.95 123.16L172.94 123.24L172.92 123.31L172.91 123.38L172.89 123.46L172.86 123.53L172.83 123.6L172.8 123.66L172.77 123.73L172.73 123.8L172.68 123.86L172.64 123.92L172.58 123.98L172.53 124.04L164.04 132.53L163.98 132.58L163.92 132.63L163.86 132.68L163.8 132.72L163.73 132.76L163.67 132.8L163.6 132.83L163.54 132.85L163.47 132.88L163.4 132.89L163.33 132.91L163.25 132.92L163.18 132.93L163.11 132.93L163.03 132.93L162.96 132.93L162.88 132.92L162.8 132.92L162.72 132.9L162.64 132.89L162.56 132.87L162.48 132.85L162.4 132.83L162.31 132.81L162.23 132.78L162.14 132.75L162.06 132.72L161.97 132.69L161.88 132.65L161.79 132.62L161.7 132.58L161.61 132.54L161.52 132.5L161.43 132.45L161.34 132.41L161.24 132.36L161.15 132.32L161.05 132.27L160.96 132.22L160.86 132.17L155.05 128.81L154.94 128.87L153.81 129.43L152.65 129.95L151.47 130.42L150.27 130.84L149.73 131.01L148 137.5L147.97 137.6L147.93 137.7L147.9 137.81L147.86 137.91L147.83 138L147.8 138.1L147.76 138.2L147.73 138.29L147.69 138.38L147.65 138.47L147.62 138.56L147.58 138.65L147.54 138.73L147.5 138.82L147.46 138.9L147.42 138.98L147.38 139.05L147.34 139.13L147.29 139.2L147.25 139.27L147.2 139.33L147.15 139.4L147.1 139.46L147.05 139.52L147 139.57L146.95 139.63L146.89 139.67L146.83 139.72L146.78 139.76L146.72 139.8L146.65 139.84L146.59 139.87L146.52 139.9L146.45 139.93L146.38 139.95L146.31 139.97L146.24 139.98L146.16 139.99L146.08 140L146 140L134 140L133.92 140L133.84 139.99L133.76 139.98L133.68 139.97L133.61 139.95L133.54 139.93L133.47 139.9L133.4 139.87L133.33 139.84L133.27 139.8L133.2 139.76L133.14 139.72L133.08 139.67L133.02 139.63L132.97 139.57L132.91 139.52L132.86 139.46L132.81 139.4L132.76 139.33L132.71 139.27L132.66 139.2L132.61 139.13L132.57 139.05L132.52 138.98L132.48 138.9L132.44 138.82L132.4 138.73L132.36 138.65L132.33 138.56L132.29 138.47L132.26 138.38L132.22 138.29L132.19 138.2L132.16 138.1L132.13 138L132.1 137.91L132.08 137.81L132.05 137.7L132.02 137.6L132 137.5L130.27 131.01L129.73 130.84L128.53 130.42L127.35 129.95L126.19 129.43L125.06 128.87L124.93 128.8L119.14 132.15L119.05 132.21L118.96 132.26L118.87 132.31L118.78 132.36L118.69 132.41L118.6 132.46L118.51 132.51L118.42 132.55L118.33 132.59L118.25 132.63L118.16 132.67L118.07 132.7L117.98 132.74L117.9 132.77L117.81 132.8L117.73 132.82L117.64 132.85L117.56 132.87L117.47 132.88L117.39 132.9L117.31 132.91L117.23 132.92L117.15 132.93L117.07 132.93L116.99 132.93L116.91 132.93L116.84 132.92L116.76 132.91L116.69 132.9L116.62 132.88L116.54 132.86L116.47 132.84L116.4 132.81L116.34 132.78L116.27 132.74L116.2 132.7L116.14 132.66L116.08 132.61L116.02 132.56L115.96 132.5L107.47 124.02L107.42 123.96L107.37 123.9L107.32 123.84L107.28 123.77L107.24 123.71L107.2 123.64L107.17 123.58L107.15 123.51L107.12 123.44L107.11 123.37L107.09 123.3L107.08 123.23L107.07 123.16L107.07 123.08L107.07 123.01L107.07 122.93L107.08 122.86L107.08 122.78L107.1 122.7L107.11 122.62L107.13 122.54L107.15 122.46L107.17 122.37L107.19 122.29L107.22 122.2L107.25 122.12L107.28 122.03L107.31 121.95L107.35 121.86L107.38 121.77L107.42 121.68L107.46 121.59L107.5 121.5L107.55 121.4L107.59 121.31L107.64 121.22L107.68 121.12L107.73 121.03L107.78 120.93L107.83 120.84L111.18 115.04L111.13 114.94L110.57 113.81L110.05 112.65L109.58 111.47L109.16 110.27L108.99 109.73L102.5 108L102.4 107.97L102.3 107.93L102.19 107.9L102.09 107.86L102 107.83L101.9 107.8L101.8 107.76L101.71 107.73L101.62 107.69L101.53 107.65L101.44 107.62L101.35 107.58L101.27 107.54L101.18 107.5L101.1 107.46L101.02 107.42L100.95 107.38L100.87 107.34L100.8 107.29L100.73 107.25L100.67 107.2L100.6 107.15L100.54 107.1L100.48 107.05L100.43 107L100.37 106.95L100.33 106.89L100.28 106.83L100.24 106.78L100.2 106.72L100.16 106.65L100.13 106.59L100.1 106.52L100.07 106.45L100.05 106.38L100.03 106.31L100.02 106.24L100.01 106.16L100 106.08L100 106L100 94L100 93.92L100.01 93.84L100.02 93.76L100.03 93.68L100.05 93.61L100.07 93.54L100.1 93.47L100.13 93.4L100.16 93.33L100.2 93.27L100.24 93.2L100.28 93.14L100.33 93.08L100.37 93.02L100.43 92.97L100.48 92.91L100.54 92.86L100.6 92.81L100.67 92.76L100.73 92.71L100.8 92.66L100.87 92.61L100.95 92.57L101.02 92.52L101.1 92.48L101.18 92.44L101.27 92.4L101.35 92.36L101.44 92.33L101.53 92.29L101.62 92.26L101.71 92.22L101.8 92.19L101.9 92.16L102 92.13L102.09 92.1L102.19 92.08L102.3 92.05L102.4 92.02L102.5 92L108.99 90.27L109.16 89.73L109.58 88.53L110.05 87.35L110.57 86.19L111.13 85.06L111.19 84.95L107.83 79.14L107.78 79.04L107.73 78.95L107.68 78.85L107.64 78.76L107.59 78.66L107.55 78.57L107.5 78.48L107.46 78.39L107.42 78.3L107.38 78.21L107.35 78.12L107.31 78.03L107.28 77.94L107.25 77.86L107.22 77.77L107.19 77.69L107.17 77.6L107.15 77.52L107.13 77.44L107.11 77.36L107.1 77.28L107.08 77.2L107.08 77.12L107.07 77.04L107.07 76.97L107.07 76.89L107.07 76.82L107.08 76.75L107.09 76.67L107.11 76.6L107.12 76.53L107.15 76.46L107.17 76.4L107.2 76.33L107.24 76.27L107.28 76.2L107.32 76.14L107.37 76.08L107.42 76.02L107.47 75.96L115.96 67.47L116.02 67.42L116.08 67.36L116.14 67.32L116.2 67.27L116.27 67.23L116.34 67.2L116.4 67.17L116.47 67.14L116.54 67.11L116.62 67.09L116.69 67.08L116.76 67.06L116.84 67.05L116.91 67.05L116.99 67.04L117.07 67.04L117.15 67.05L117.23 67.05L117.31 67.06L117.39 67.08L117.47 67.09L117.56 67.11L117.64 67.13L117.73 67.15L117.81 67.18L117.9 67.21L117.98 67.24L118.07 67.27L118.16 67.31L118.25 67.35L118.33 67.39L118.42 67.43L118.51 67.47L118.6 67.52L118.69 67.56L118.78 67.61L118.87 67.66L118.96 67.72L119.05 67.77L119.14 67.83L124.95 71.19L125.06 71.13L126.19 70.57L127.35 70.05L128.53 69.58L129.73 69.16L130.27 68.99L132 62.5L132.02 62.4L132.05 62.3L132.08 62.19L132.1 62.09L132.13 62L132.16 61.9L132.19 61.8L132.22 61.71L132.26 61.62L132.29 61.53L132.33 61.44L132.36 61.35L132.4 61.27L132.44 61.18L132.48 61.1L132.52 61.02L132.57 60.95L132.61 60.87L132.66 60.8L132.71 60.73L132.76 60.67L132.81 60.6L132.86 60.54L132.91 60.48L132.97 60.43L133.02 60.37L133.08 60.33L133.14 60.28L133.2 60.24L133.27 60.2L133.33 60.16L133.4 60.13L133.47 60.1L133.54 60.07L133.61 60.05L133.68 60.03L133.76 60.02L133.84 60.01L133.92 60L134 60L146 60L146.08 60L146.16 60.01ZM138.56 82.56L137.86 82.63L137.16 82.73L136.47 82.86L135.79 83.01L135.13 83.19L134.47 83.39L133.82 83.62L133.19 83.88L132.57 84.15L131.96 84.45L131.36 84.78L130.78 85.12L130.22 85.49L129.66 85.88L129.13 86.28L128.61 86.71L128.11 87.16L127.63 87.63L127.16 88.11L126.71 88.61L126.28 89.13L125.88 89.66L125.49 90.22L125.12 90.78L124.78 91.36L124.45 91.96L124.15 92.57L123.88 93.19L123.62 93.82L123.39 94.47L123.19 95.13L123.01 95.79L122.86 96.47L122.73 97.16L122.63 97.86L122.56 98.56L122.51 99.28L122.5 100L122.51 100.72L122.56 101.44L122.63 102.14L122.73 102.84L122.86 103.53L123.01 104.21L123.19 104.87L123.39 105.53L123.62 106.18L123.88 106.81L124.15 107.43L124.45 108.04L124.78 108.64L125.12 109.22L125.49 109.78L125.88 110.34L126.28 110.87L126.71 111.39L127.16 111.89L127.63 112.37L128.11 112.84L128.61 113.29L129.13 113.72L129.66 114.12L130.22 114.51L130.78 114.88L131.36 115.22L131.96 115.55L132.57 115.85L133.19 116.12L133.82 116.38L134.47 116.61L135.13 116.81L135.79 116.99L136.47 117.14L137.16 117.27L137.86 117.37L138.56 117.44L139.28 117.49L140 117.5L140.72 117.49L141.44 117.44L142.14 117.37L142.84 117.27L143.53 117.14L144.21 116.99L144.87 116.81L145.53 116.61L146.18 116.38L146.81 116.12L147.43 115.85L148.04 115.55L148.64 115.22L149.22 114.88L149.78 114.51L150.34 114.12L150.87 113.72L151.39 113.29L151.89 112.84L152.37 112.37L152.84 111.89L153.29 111.39L153.72 110.87L154.12 110.34L154.51 109.78L154.88 109.22L155.22 108.64L155.55 108.04L155.85 107.43L156.12 106.81L156.38 106.18L156.61 105.53L156.81 104.87L156.99 104.21L157.14 103.53L157.27 102.84L157.37 102.14L157.44 101.44L157.49 100.72L157.5 100L157.49 99.28L157.44 98.56L157.37 97.86L157.27 97.16L157.14 96.47L156.99 95.79L156.81 95.13L156.61 94.47L156.38 93.82L156.12 93.19L155.85 92.57L155.55 91.96L155.22 91.36L154.88 90.78L154.51 90.22L154.12 89.66L153.72 89.13L153.29 88.61L152.84 88.11L152.37 87.63L151.89 87.16L151.39 86.71L150.87 86.28L150.34 85.88L149.78 85.49L149.22 85.12L148.64 84.78L148.04 84.45L147.43 84.15L146.81 83.88L146.18 83.62L145.53 83.39L144.87 83.19L144.21 83.01L143.53 82.86L142.84 82.73L142.14 82.63L141.44 82.56L140.72 82.51L140 82.5L139.28 82.51L138.56 82.56Z" id="aHHFBHRxZ"></path><path d="M106.16 20.01L106.24 20.02L106.31 20.03L106.38 20.05L106.45 20.07L106.52 20.1L106.59 20.13L106.65 20.16L106.72 20.2L106.78 20.24L106.83 20.28L106.89 20.33L106.95 20.37L107 20.43L107.05 20.48L107.1 20.54L107.15 20.6L107.2 20.67L107.25 20.73L107.29 20.8L107.34 20.87L107.38 20.95L107.42 21.02L107.46 21.1L107.5 21.18L107.54 21.27L107.58 21.35L107.62 21.44L107.65 21.53L107.69 21.62L107.73 21.71L107.76 21.8L107.8 21.9L107.83 22L107.86 22.09L107.9 22.19L107.93 22.3L107.97 22.4L108 22.5L109.73 28.99L110.27 29.16L111.47 29.58L112.65 30.05L113.81 30.57L114.94 31.13L115.03 31.18L120.86 27.8L120.96 27.75L121.05 27.71L121.15 27.66L121.24 27.61L121.34 27.57L121.43 27.52L121.52 27.48L121.61 27.44L121.7 27.4L121.79 27.36L121.88 27.32L121.97 27.29L122.06 27.26L122.14 27.22L122.23 27.2L122.31 27.17L122.4 27.14L122.48 27.12L122.56 27.1L122.64 27.09L122.72 27.07L122.8 27.06L122.88 27.05L122.96 27.05L123.03 27.04L123.11 27.05L123.18 27.05L123.25 27.06L123.33 27.07L123.4 27.08L123.47 27.1L123.54 27.12L123.6 27.15L123.67 27.18L123.73 27.21L123.8 27.25L123.86 27.29L123.92 27.34L123.98 27.39L124.04 27.45L132.53 35.93L132.58 35.99L132.64 36.05L132.68 36.12L132.73 36.18L132.77 36.25L132.8 36.31L132.83 36.38L132.86 36.45L132.89 36.52L132.91 36.59L132.92 36.66L132.94 36.74L132.95 36.81L132.95 36.89L132.96 36.97L132.96 37.05L132.95 37.12L132.95 37.2L132.94 37.29L132.92 37.37L132.91 37.45L132.89 37.53L132.87 37.62L132.85 37.7L132.82 37.79L132.79 37.87L132.76 37.96L132.73 38.05L132.69 38.13L132.65 38.22L132.61 38.31L132.57 38.4L132.53 38.49L132.48 38.58L132.44 38.67L132.39 38.76L132.34 38.85L132.28 38.94L132.23 39.03L132.17 39.12L128.8 44.94L128.87 45.06L129.43 46.19L129.95 47.35L130.42 48.53L130.84 49.73L131.01 50.27L137.5 52L137.6 52.02L137.7 52.05L137.81 52.08L137.91 52.1L138 52.13L138.1 52.16L138.2 52.19L138.29 52.22L138.38 52.26L138.47 52.29L138.56 52.33L138.65 52.36L138.73 52.4L138.82 52.44L138.9 52.48L138.98 52.52L139.05 52.57L139.13 52.61L139.2 52.66L139.27 52.71L139.33 52.76L139.4 52.81L139.46 52.86L139.52 52.91L139.57 52.97L139.63 53.02L139.67 53.08L139.72 53.14L139.76 53.2L139.8 53.27L139.84 53.33L139.87 53.4L139.9 53.47L139.93 53.54L139.95 53.61L139.97 53.68L139.98 53.76L139.99 53.84L140 53.92L140 54L140 66L140 66.08L139.99 66.16L139.98 66.24L139.97 66.31L139.95 66.38L139.93 66.45L139.9 66.52L139.87 66.59L139.84 66.65L139.8 66.72L139.76 66.78L139.72 66.83L139.67 66.89L139.63 66.95L139.57 67L139.52 67.05L139.46 67.1L139.4 67.15L139.33 67.2L139.27 67.25L139.2 67.29L139.13 67.34L139.05 67.38L138.98 67.42L138.9 67.46L138.82 67.5L138.73 67.54L138.65 67.58L138.56 67.62L138.47 67.65L138.38 67.69L138.29 67.73L138.2 67.76L138.1 67.8L138 67.83L137.91 67.86L137.81 67.9L137.7 67.93L137.6 67.97L137.5 68L131.01 69.73L130.84 70.27L130.42 71.47L129.95 72.65L129.43 73.81L128.87 74.94L128.81 75.05L132.17 80.86L132.23 80.95L132.28 81.04L132.34 81.13L132.39 81.22L132.44 81.31L132.48 81.4L132.53 81.49L132.57 81.58L132.61 81.67L132.65 81.75L132.69 81.84L132.73 81.93L132.76 82.02L132.79 82.1L132.82 82.19L132.85 82.27L132.87 82.36L132.89 82.44L132.91 82.53L132.92 82.61L132.94 82.69L132.95 82.77L132.95 82.85L132.96 82.93L132.96 83.01L132.95 83.09L132.95 83.16L132.94 83.24L132.92 83.31L132.91 83.38L132.89 83.46L132.86 83.53L132.83 83.6L132.8 83.66L132.77 83.73L132.73 83.8L132.68 83.86L132.64 83.92L132.58 83.98L132.53 84.04L124.04 92.53L123.98 92.58L123.92 92.63L123.86 92.68L123.8 92.72L123.73 92.76L123.67 92.8L123.6 92.83L123.54 92.85L123.47 92.88L123.4 92.89L123.33 92.91L123.25 92.92L123.18 92.93L123.11 92.93L123.03 92.93L122.96 92.93L122.88 92.92L122.8 92.92L122.72 92.9L122.64 92.89L122.56 92.87L122.48 92.85L122.4 92.83L122.31 92.81L122.23 92.78L122.14 92.75L122.06 92.72L121.97 92.69L121.88 92.65L121.79 92.62L121.7 92.58L121.61 92.54L121.52 92.5L121.43 92.45L121.34 92.41L121.24 92.36L121.15 92.32L121.05 92.27L120.96 92.22L120.86 92.17L115.05 88.81L114.94 88.87L113.81 89.43L112.65 89.95L111.47 90.42L110.27 90.84L109.73 91.01L108 97.5L107.97 97.6L107.93 97.7L107.9 97.81L107.86 97.91L107.83 98L107.8 98.1L107.76 98.2L107.73 98.29L107.69 98.38L107.65 98.47L107.62 98.56L107.58 98.65L107.54 98.73L107.5 98.82L107.46 98.9L107.42 98.98L107.38 99.05L107.34 99.13L107.29 99.2L107.25 99.27L107.2 99.33L107.15 99.4L107.1 99.46L107.05 99.52L107 99.57L106.95 99.63L106.89 99.67L106.83 99.72L106.78 99.76L106.72 99.8L106.65 99.84L106.59 99.87L106.52 99.9L106.45 99.93L106.38 99.95L106.31 99.97L106.24 99.98L106.16 99.99L106.08 100L106 100L94 100L93.92 100L93.84 99.99L93.76 99.98L93.68 99.97L93.61 99.95L93.54 99.93L93.47 99.9L93.4 99.87L93.33 99.84L93.27 99.8L93.2 99.76L93.14 99.72L93.08 99.67L93.02 99.63L92.97 99.57L92.91 99.52L92.86 99.46L92.81 99.4L92.76 99.33L92.71 99.27L92.66 99.2L92.61 99.13L92.57 99.05L92.52 98.98L92.48 98.9L92.44 98.82L92.4 98.73L92.36 98.65L92.33 98.56L92.29 98.47L92.26 98.38L92.22 98.29L92.19 98.2L92.16 98.1L92.13 98L92.1 97.91L92.08 97.81L92.05 97.7L92.02 97.6L92 97.5L90.27 91.01L89.73 90.84L88.53 90.42L87.35 89.95L86.19 89.43L85.06 88.87L84.93 88.8L79.14 92.15L79.05 92.21L78.96 92.26L78.87 92.31L78.78 92.36L78.69 92.41L78.6 92.46L78.51 92.51L78.42 92.55L78.33 92.59L78.25 92.63L78.16 92.67L78.07 92.7L77.98 92.74L77.9 92.77L77.81 92.8L77.73 92.82L77.64 92.85L77.56 92.87L77.47 92.88L77.39 92.9L77.31 92.91L77.23 92.92L77.15 92.93L77.07 92.93L76.99 92.93L76.91 92.93L76.84 92.92L76.76 92.91L76.69 92.9L76.62 92.88L76.54 92.86L76.47 92.84L76.4 92.81L76.34 92.78L76.27 92.74L76.2 92.7L76.14 92.66L76.08 92.61L76.02 92.56L75.96 92.5L67.47 84.02L67.42 83.96L67.37 83.9L67.32 83.84L67.28 83.77L67.24 83.71L67.2 83.64L67.17 83.58L67.15 83.51L67.12 83.44L67.11 83.37L67.09 83.3L67.08 83.23L67.07 83.16L67.07 83.08L67.07 83.01L67.07 82.93L67.08 82.86L67.08 82.78L67.1 82.7L67.11 82.62L67.13 82.54L67.15 82.46L67.17 82.37L67.19 82.29L67.22 82.2L67.25 82.12L67.28 82.03L67.31 81.95L67.35 81.86L67.38 81.77L67.42 81.68L67.46 81.59L67.5 81.5L67.55 81.4L67.59 81.31L67.64 81.22L67.68 81.12L67.73 81.03L67.78 80.93L67.83 80.84L71.18 75.04L71.13 74.94L70.57 73.81L70.05 72.65L69.58 71.47L69.16 70.27L68.99 69.73L62.5 68L62.4 67.97L62.3 67.93L62.19 67.9L62.09 67.86L62 67.83L61.9 67.8L61.8 67.76L61.71 67.73L61.62 67.69L61.53 67.65L61.44 67.62L61.35 67.58L61.27 67.54L61.18 67.5L61.1 67.46L61.02 67.42L60.95 67.38L60.87 67.34L60.8 67.29L60.73 67.25L60.67 67.2L60.6 67.15L60.54 67.1L60.48 67.05L60.43 67L60.37 66.95L60.33 66.89L60.28 66.83L60.24 66.78L60.2 66.72L60.16 66.65L60.13 66.59L60.1 66.52L60.07 66.45L60.05 66.38L60.03 66.31L60.02 66.24L60.01 66.16L60 66.08L60 66L60 54L60 53.92L60.01 53.84L60.02 53.76L60.03 53.68L60.05 53.61L60.07 53.54L60.1 53.47L60.13 53.4L60.16 53.33L60.2 53.27L60.24 53.2L60.28 53.14L60.33 53.08L60.37 53.02L60.43 52.97L60.48 52.91L60.54 52.86L60.6 52.81L60.67 52.76L60.73 52.71L60.8 52.66L60.87 52.61L60.95 52.57L61.02 52.52L61.1 52.48L61.18 52.44L61.27 52.4L61.35 52.36L61.44 52.33L61.53 52.29L61.62 52.26L61.71 52.22L61.8 52.19L61.9 52.16L62 52.13L62.09 52.1L62.19 52.08L62.3 52.05L62.4 52.02L62.5 52L68.99 50.27L69.16 49.73L69.58 48.53L70.05 47.35L70.57 46.19L71.13 45.06L71.19 44.95L67.83 39.14L67.78 39.04L67.73 38.95L67.68 38.85L67.64 38.76L67.59 38.66L67.55 38.57L67.5 38.48L67.46 38.39L67.42 38.3L67.38 38.21L67.35 38.12L67.31 38.03L67.28 37.94L67.25 37.86L67.22 37.77L67.19 37.69L67.17 37.6L67.15 37.52L67.13 37.44L67.11 37.36L67.1 37.28L67.08 37.2L67.08 37.12L67.07 37.04L67.07 36.97L67.07 36.89L67.07 36.82L67.08 36.75L67.09 36.67L67.11 36.6L67.12 36.53L67.15 36.46L67.17 36.4L67.2 36.33L67.24 36.27L67.28 36.2L67.32 36.14L67.37 36.08L67.42 36.02L67.47 35.96L75.96 27.47L76.02 27.42L76.08 27.36L76.14 27.32L76.2 27.27L76.27 27.23L76.34 27.2L76.4 27.17L76.47 27.14L76.54 27.11L76.62 27.09L76.69 27.08L76.76 27.06L76.84 27.05L76.91 27.05L76.99 27.04L77.07 27.04L77.15 27.05L77.23 27.05L77.31 27.06L77.39 27.08L77.47 27.09L77.56 27.11L77.64 27.13L77.73 27.15L77.81 27.18L77.9 27.21L77.98 27.24L78.07 27.27L78.16 27.31L78.25 27.35L78.33 27.39L78.42 27.43L78.51 27.47L78.6 27.52L78.69 27.56L78.78 27.61L78.87 27.66L78.96 27.72L79.05 27.77L79.14 27.83L84.95 31.19L85.06 31.13L86.19 30.57L87.35 30.05L88.53 29.58L89.73 29.16L90.27 28.99L92 22.5L92.02 22.4L92.05 22.3L92.08 22.19L92.1 22.09L92.13 22L92.16 21.9L92.19 21.8L92.22 21.71L92.26 21.62L92.29 21.53L92.33 21.44L92.36 21.35L92.4 21.27L92.44 21.18L92.48 21.1L92.52 21.02L92.57 20.95L92.61 20.87L92.66 20.8L92.71 20.73L92.76 20.67L92.81 20.6L92.86 20.54L92.91 20.48L92.97 20.43L93.02 20.37L93.08 20.33L93.14 20.28L93.2 20.24L93.27 20.2L93.33 20.16L93.4 20.13L93.47 20.1L93.54 20.07L93.61 20.05L93.68 20.03L93.76 20.02L93.84 20.01L93.92 20L94 20L106 20L106.08 20L106.16 20.01ZM98.56 42.56L97.86 42.63L97.16 42.73L96.47 42.86L95.79 43.01L95.13 43.19L94.47 43.39L93.82 43.62L93.19 43.88L92.57 44.15L91.96 44.45L91.36 44.78L90.78 45.12L90.22 45.49L89.66 45.88L89.13 46.28L88.61 46.71L88.11 47.16L87.63 47.63L87.16 48.11L86.71 48.61L86.28 49.13L85.88 49.66L85.49 50.22L85.12 50.78L84.78 51.36L84.45 51.96L84.15 52.57L83.88 53.19L83.62 53.82L83.39 54.47L83.19 55.13L83.01 55.79L82.86 56.47L82.73 57.16L82.63 57.86L82.56 58.56L82.51 59.28L82.5 60L82.51 60.72L82.56 61.44L82.63 62.14L82.73 62.84L82.86 63.53L83.01 64.21L83.19 64.87L83.39 65.53L83.62 66.18L83.88 66.81L84.15 67.43L84.45 68.04L84.78 68.64L85.12 69.22L85.49 69.78L85.88 70.34L86.28 70.87L86.71 71.39L87.16 71.89L87.63 72.37L88.11 72.84L88.61 73.29L89.13 73.72L89.66 74.12L90.22 74.51L90.78 74.88L91.36 75.22L91.96 75.55L92.57 75.85L93.19 76.12L93.82 76.38L94.47 76.61L95.13 76.81L95.79 76.99L96.47 77.14L97.16 77.27L97.86 77.37L98.56 77.44L99.28 77.49L100 77.5L100.72 77.49L101.44 77.44L102.14 77.37L102.84 77.27L103.53 77.14L104.21 76.99L104.87 76.81L105.53 76.61L106.18 76.38L106.81 76.12L107.43 75.85L108.04 75.55L108.64 75.22L109.22 74.88L109.78 74.51L110.34 74.12L110.87 73.72L111.39 73.29L111.89 72.84L112.37 72.37L112.84 71.89L113.29 71.39L113.72 70.87L114.12 70.34L114.51 69.78L114.88 69.22L115.22 68.64L115.55 68.04L115.85 67.43L116.12 66.81L116.38 66.18L116.61 65.53L116.81 64.87L116.99 64.21L117.14 63.53L117.27 62.84L117.37 62.14L117.44 61.44L117.49 60.72L117.5 60L117.49 59.28L117.44 58.56L117.37 57.86L117.27 57.16L117.14 56.47L116.99 55.79L116.81 55.13L116.61 54.47L116.38 53.82L116.12 53.19L115.85 52.57L115.55 51.96L115.22 51.36L114.88 50.78L114.51 50.22L114.12 49.66L113.72 49.13L113.29 48.61L112.84 48.11L112.37 47.63L111.89 47.16L111.39 46.71L110.87 46.28L110.34 45.88L109.78 45.49L109.22 45.12L108.64 44.78L108.04 44.45L107.43 44.15L106.81 43.88L106.18 43.62L105.53 43.39L104.87 43.19L104.21 43.01L103.53 42.86L102.84 42.73L102.14 42.63L101.44 42.56L100.72 42.51L100 42.5L99.28 42.51L98.56 42.56Z" id="lNm9yfCxT"></path></defs><g><g><g><use xlink:href="#cjkXSBuoC" opacity="1" fill="#009688" fill-opacity="1"></use></g><g><use xlink:href="#crhojALRG" opacity="1" fill="#00bcd4" fill-opacity="1"></use></g><g><use xlink:href="#aHHFBHRxZ" opacity="1" fill="#03a9f4" fill-opacity="1"></use></g><g><use xlink:href="#lNm9yfCxT" opacity="1" fill="#4caf50" fill-opacity="1"></use></g></g></g></svg>